<svg width="36" height="32" viewBox="0 0 36 32" fill="none" xmlns="http://www.w3.org/2000/svg">
<path d="M31.5 6C31.5 5.46957 31.2629 4.96086 30.841 4.58579C30.419 4.21071 29.8467 4 29.25 4H24.75V2H22.5V4H13.5V2H11.25V4H6.75C6.15326 4 5.58097 4.21071 5.15901 4.58579C4.73705 4.96086 4.5 5.46957 4.5 6V26C4.5 26.5304 4.73705 27.0391 5.15901 27.4142C5.58097 27.7893 6.15326 28 6.75 28H11.25V26H6.75V6H11.25V8H13.5V6H22.5V8H24.75V6H29.25V12H31.5V6Z" fill="white"/>
<path d="M23.625 15L26.4926 19.938L32.625 20.729L28.125 24.573L29.25 30L23.625 27.438L18 30L19.125 24.573L14.625 20.729L20.925 19.938L23.625 15Z" fill="white"/>
</svg>
