<svg width="26" height="27" viewBox="0 0 26 27" fill="none" xmlns="http://www.w3.org/2000/svg">
<path d="M21.0525 17.3878V12.9021C21.0525 12.5622 20.9222 12.2362 20.6903 11.9959C20.4583 11.7555 20.1437 11.6205 19.8157 11.6205H18.5788C21.3494 9.55705 21.9926 5.55838 20.0012 2.64908C19.0376 1.27642 17.5895 0.35398 15.9724 0.082715C14.3553 -0.18855 12.7003 0.213345 11.3679 1.20084C10.5392 1.81602 9.8713 2.64908 9.42603 3.58467C8.73485 3.14097 7.96579 2.84331 7.16314 2.70881C6.36049 2.57432 5.5401 2.60565 4.74918 2.80101C3.95826 2.99636 3.21244 3.35188 2.55466 3.8471C1.89687 4.34233 1.34011 4.96746 0.916412 5.68654C0.0572216 7.13462 -0.211752 8.87701 0.168638 10.5306C0.549029 12.1841 1.54764 13.6134 2.94487 14.5041C3.20461 14.6579 3.46435 14.8245 3.73646 14.9271V25.7184C3.73646 26.0583 3.86677 26.3843 4.09873 26.6246C4.33069 26.865 4.64529 27 4.97332 27H19.8157C20.1437 27 20.4583 26.865 20.6903 26.6246C20.9222 26.3843 21.0525 26.0583 21.0525 25.7184V21.2327L26 26.3592V12.2613L21.0525 17.3878ZM14.8682 3.93071C15.5243 3.93071 16.1535 4.20077 16.6174 4.68147C17.0813 5.16217 17.342 5.81415 17.342 6.49396C17.342 7.17378 17.0813 7.82576 16.6174 8.30646C16.1535 8.78716 15.5243 9.05722 14.8682 9.05722C14.2122 9.05722 13.583 8.78716 13.119 8.30646C12.6551 7.82576 12.3945 7.17378 12.3945 6.49396C12.3945 5.81415 12.6551 5.16217 13.119 4.68147C13.583 4.20077 14.2122 3.93071 14.8682 3.93071ZM6.21019 6.49396C6.86626 6.49396 7.49546 6.76402 7.95938 7.24472C8.42329 7.72543 8.68391 8.3774 8.68391 9.05722C8.68391 9.73704 8.42329 10.389 7.95938 10.8697C7.49546 11.3504 6.86626 11.6205 6.21019 11.6205C5.55411 11.6205 4.92491 11.3504 4.461 10.8697C3.99708 10.389 3.73646 9.73704 3.73646 9.05722C3.73646 8.3774 3.99708 7.72543 4.461 7.24472C4.92491 6.76402 5.55411 6.49396 6.21019 6.49396Z" fill="white"/>
</svg>
