<svg width="41" height="41" viewBox="0 0 41 41" fill="none" xmlns="http://www.w3.org/2000/svg">
<path d="M18.463 10.7384C17.4796 9.30366 15.8519 8.58545 13.5815 8.58545C10.175 8.58545 4.35208 12.7596 4.35208 16.5244L4.35208 26.1565C4.35208 29.839 7.58236 32.0784 10.175 32.0784H21.1244C21.792 32.0784 22.4322 31.8132 22.9042 31.3412C23.3763 30.8691 23.6415 30.2289 23.6415 29.5613V29.5529C23.6415 28.8876 23.3772 28.2495 22.9067 27.779C22.4362 27.3085 21.7981 27.0442 21.1328 27.0442" stroke="white" stroke-width="3" stroke-linecap="round"/>
<path d="M16.5642 11.9255L33.7141 11.9255C34.0449 11.9256 34.3725 11.991 34.678 12.1179C34.9835 12.2448 35.261 12.4307 35.4946 12.665C35.7282 12.8992 35.9133 13.1773 36.0392 13.4832C36.1652 13.7891 36.2296 14.1168 36.2287 14.4477C36.2269 15.1173 35.9596 15.759 35.4853 16.2318C35.0111 16.7046 34.3687 16.97 33.699 16.9698L20.6361 16.9698" stroke="white" stroke-width="3" stroke-linecap="round"/>
<path d="M21.1261 16.97H24.4755C25.1351 16.987 25.762 17.2609 26.2226 17.7335C26.6831 18.206 26.9409 18.8398 26.9409 19.4997C26.9409 20.1595 26.6831 20.7933 26.2226 21.2658C25.762 21.7384 25.1351 22.0124 24.4755 22.0293H21.1261" stroke="white" stroke-width="3" stroke-linecap="round" stroke-linejoin="round"/>
<path d="M21.3711 22.01H23.6474C24.315 22.01 24.9552 22.2752 25.4272 22.7473C25.8993 23.2193 26.1645 23.8595 26.1645 24.5271C26.1645 25.1947 25.8993 25.8349 25.4272 26.307C24.9552 26.779 24.315 27.0442 23.6474 27.0442H21.1303" stroke="white" stroke-width="3" stroke-linecap="round" stroke-linejoin="round"/>
</svg>
