<svg width="20" height="31" viewBox="0 0 20 31" fill="none" xmlns="http://www.w3.org/2000/svg">
<path d="M2.85714 0C1.28571 0 0 1.26818 0 2.81818V28.1818C0 28.9292 0.301019 29.6461 0.836838 30.1746C1.37266 30.7031 2.09938 31 2.85714 31H12.8571C16.8 31 20 27.8436 20 23.9545V2.81818C20 2.07075 19.699 1.35394 19.1632 0.825426C18.6273 0.296915 17.9006 0 17.1429 0H2.85714ZM4.28571 4.22727H15.7143V14.0909H4.28571V4.22727ZM5.71429 18.3182H7.14286V21.1364H10V22.5455H7.14286V25.3636H5.71429V22.5455H2.85714V21.1364H5.71429V18.3182ZM15.7143 19.7273C16.5 19.7273 17.1429 20.3614 17.1429 21.1364C17.1429 21.9114 16.5 22.5455 15.7143 22.5455C14.9286 22.5455 14.2857 21.9114 14.2857 21.1364C14.2857 20.3614 14.9286 19.7273 15.7143 19.7273ZM12.8571 22.5455C13.6429 22.5455 14.2857 23.1795 14.2857 23.9545C14.2857 24.7295 13.6429 25.3636 12.8571 25.3636C12.0714 25.3636 11.4286 24.7295 11.4286 23.9545C11.4286 23.1795 12.0714 22.5455 12.8571 22.5455Z" fill="white"/>
</svg>
