<svg width="46" height="45" viewBox="0 0 46 45" fill="none" xmlns="http://www.w3.org/2000/svg">
<path d="M24.9653 3.72884C26.3154 3.72366 27.6656 3.73723 29.0153 3.76954L29.3743 3.78249C29.7887 3.7973 30.1976 3.8158 30.6916 3.838C32.6602 3.93051 34.0034 4.24134 35.1819 4.69833C36.403 5.16827 37.4317 5.80473 38.4604 6.83342C39.401 7.75777 40.129 8.8759 40.5937 10.1101C41.0507 11.2886 41.3615 12.6337 41.454 14.6023C41.4762 15.0944 41.4947 15.5052 41.5095 15.9196L41.5206 16.2785C41.5535 17.6276 41.5677 18.9772 41.5632 20.3267L41.565 21.7069V24.1306C41.5696 25.4808 41.5554 26.8309 41.5225 28.1806L41.5114 28.5396C41.4966 28.954 41.4781 29.3629 41.4559 29.8569C41.3633 31.8255 41.0488 33.1687 40.5937 34.3472C40.1305 35.5827 39.4023 36.7018 38.4604 37.6257C37.5353 38.5662 36.4166 39.2941 35.1819 39.759C34.0034 40.216 32.6602 40.5268 30.6916 40.6193C30.1976 40.6415 29.7887 40.66 29.3743 40.6748L29.0153 40.6859C27.6656 40.7188 26.3155 40.733 24.9653 40.7285L23.5851 40.7303H21.1632C19.8131 40.7349 18.463 40.7207 17.1132 40.6878L16.7543 40.6767C16.3151 40.6608 15.8759 40.6422 15.437 40.6212C13.4684 40.5287 12.1252 40.2141 10.9448 39.759C9.7101 39.2952 8.59178 38.5672 7.66811 37.6257C6.72645 36.7012 5.99782 35.5823 5.53301 34.3472C5.07602 33.1687 4.76519 31.8255 4.67269 29.8569C4.65208 29.4179 4.63358 28.9788 4.61718 28.5396L4.60793 28.1806C4.57382 26.8309 4.5584 25.4808 4.56168 24.1306V20.3267C4.55651 18.9772 4.57008 17.6277 4.60238 16.2785L4.61533 15.9196C4.63013 15.5052 4.64863 15.0944 4.67084 14.6023C4.76334 12.6318 5.07417 11.2905 5.53116 10.1101C5.99624 8.8753 6.7263 7.75748 7.66996 6.83527C8.59299 5.89308 9.71062 5.16378 10.9448 4.69833C12.1252 4.24134 13.4665 3.93051 15.437 3.838L16.7543 3.78249L17.1132 3.77324C18.4623 3.73915 19.8118 3.72373 21.1614 3.72699L24.9653 3.72884ZM23.0633 12.9797C21.8376 12.9623 20.6207 13.1888 19.4832 13.6459C18.3458 14.1029 17.3105 14.7815 16.4376 15.6422C15.5647 16.5028 14.8715 17.5284 14.3984 18.6592C13.9253 19.7901 13.6817 21.0037 13.6817 22.2296C13.6817 23.4554 13.9253 24.6691 14.3984 25.7999C14.8715 26.9308 15.5647 27.9563 16.4376 28.817C17.3105 29.6777 18.3458 30.3562 19.4832 30.8133C20.6207 31.2704 21.8376 31.4968 23.0633 31.4795C25.5168 31.4795 27.8698 30.5049 29.6047 28.77C31.3395 27.0351 32.3142 24.6821 32.3142 22.2287C32.3142 19.7752 31.3395 17.4222 29.6047 15.6873C27.8698 13.9525 25.5168 12.9797 23.0633 12.9797ZM23.0633 16.68C23.8006 16.6664 24.5333 16.7999 25.2184 17.0726C25.9036 17.3454 26.5275 17.7519 27.0537 18.2685C27.58 18.785 27.9981 19.4013 28.2835 20.0812C28.5689 20.7612 28.716 21.4912 28.7161 22.2286C28.7162 22.9661 28.5694 23.6961 28.2842 24.3762C27.999 25.0562 27.5812 25.6726 27.0551 26.1894C26.529 26.7061 25.9052 27.1129 25.2201 27.3858C24.5351 27.6588 23.8025 27.7925 23.0652 27.7792C21.5931 27.7792 20.1813 27.1944 19.1404 26.1535C18.0995 25.1125 17.5147 23.7007 17.5147 22.2287C17.5147 20.7566 18.0995 19.3448 19.1404 18.3039C20.1813 17.2629 21.5931 16.6782 23.0652 16.6782L23.0633 16.68ZM32.7767 10.2044C32.1798 10.2283 31.6154 10.4822 31.2015 10.913C30.7876 11.3437 30.5565 11.9179 30.5565 12.5153C30.5565 13.1126 30.7876 13.6868 31.2015 14.1176C31.6154 14.5483 32.1798 14.8022 32.7767 14.8261C33.3901 14.8261 33.9783 14.5825 34.4121 14.1488C34.8458 13.715 35.0894 13.1268 35.0894 12.5134C35.0894 11.9001 34.8458 11.3118 34.4121 10.8781C33.9783 10.4444 33.3901 10.2007 32.7767 10.2007V10.2044Z" fill="white"/>
</svg>
