<svg width="55" height="55" viewBox="0 0 55 55" fill="none" xmlns="http://www.w3.org/2000/svg">
<path d="M43.725 12.0941C40.7072 10.6873 37.4397 9.66624 34.0361 9.07628C34.0063 9.07532 33.9766 9.08092 33.9491 9.09268C33.9217 9.10444 33.8971 9.12208 33.8773 9.14435C33.4688 9.89314 32.9923 10.8688 32.6746 11.6176C29.0646 11.0731 25.3932 11.0731 21.7831 11.6176C21.4654 10.8462 20.9889 9.89314 20.5578 9.14435C20.5351 9.09897 20.467 9.07628 20.399 9.07628C16.9954 9.66624 13.7506 10.6873 10.71 12.0941C10.6873 12.0941 10.6646 12.1168 10.642 12.1395C4.47007 21.3747 2.76827 30.3602 3.60783 39.2549C3.60783 39.3003 3.63052 39.3457 3.6759 39.3684C7.76023 42.3636 11.6857 44.1788 15.5658 45.3814C15.6339 45.4041 15.702 45.3814 15.7247 45.3361C16.6323 44.0881 17.4492 42.772 18.1526 41.3879C18.198 41.2971 18.1526 41.2063 18.0618 41.1837C16.7684 40.6845 15.5431 40.0945 14.3405 39.4138C14.2498 39.3684 14.2498 39.2323 14.3179 39.1642C14.5674 38.9827 14.817 38.7784 15.0666 38.5969C15.112 38.5515 15.1801 38.5515 15.2255 38.5742C23.0311 42.1367 31.4494 42.1367 39.1642 38.5742C39.2096 38.5515 39.2776 38.5515 39.323 38.5969C39.5726 38.8011 39.8222 38.9827 40.0718 39.1869C40.1626 39.2549 40.1626 39.3911 40.0491 39.4365C38.8692 40.1399 37.6212 40.7071 36.3279 41.2063C36.2371 41.229 36.2144 41.3425 36.2371 41.4106C36.9632 42.7947 37.7801 44.1108 38.665 45.3587C38.7331 45.3814 38.8011 45.4041 38.8692 45.3814C42.772 44.1788 46.6975 42.3636 50.7818 39.3684C50.8272 39.3457 50.8499 39.3003 50.8499 39.2549C51.8483 28.976 49.1935 20.0586 43.8158 12.1395C43.7931 12.1168 43.7704 12.0941 43.725 12.0941ZM19.3325 33.8319C16.9954 33.8319 15.044 31.6762 15.044 29.0214C15.044 26.3666 16.95 24.211 19.3325 24.211C21.7377 24.211 23.6437 26.3893 23.621 29.0214C23.621 31.6762 21.715 33.8319 19.3325 33.8319ZM35.1479 33.8319C32.8108 33.8319 30.8594 31.6762 30.8594 29.0214C30.8594 26.3666 32.7654 24.211 35.1479 24.211C37.5532 24.211 39.4592 26.3893 39.4365 29.0214C39.4365 31.6762 37.5532 33.8319 35.1479 33.8319Z" fill="white"/>
</svg>
