<svg width="40" height="40" viewBox="0 0 40 40" fill="none" xmlns="http://www.w3.org/2000/svg">
<path d="M36.25 6.28906H27.3125C25.3945 6.28906 23.5195 6.83984 21.9062 7.87891L20 9.10156L18.0938 7.87891C16.4821 6.84004 14.605 6.28804 12.6875 6.28906H3.75C3.05859 6.28906 2.5 6.84766 2.5 7.53906V29.7266C2.5 30.418 3.05859 30.9766 3.75 30.9766H12.6875C14.6055 30.9766 16.4805 31.5273 18.0938 32.5664L19.8281 33.6836C19.8789 33.7148 19.9375 33.7344 19.9961 33.7344C20.0547 33.7344 20.1133 33.7187 20.1641 33.6836L21.8984 32.5664C23.5156 31.5273 25.3945 30.9766 27.3125 30.9766H36.25C36.9414 30.9766 37.5 30.418 37.5 29.7266V7.53906C37.5 6.84766 36.9414 6.28906 36.25 6.28906ZM12.6875 28.1641H5.3125V9.10156H12.6875C14.0703 9.10156 15.4141 9.49609 16.5742 10.2422L18.4805 11.4648L18.75 11.6406V29.6875C16.8906 28.6875 14.8125 28.1641 12.6875 28.1641ZM34.6875 28.1641H27.3125C25.1875 28.1641 23.1094 28.6875 21.25 29.6875V11.6406L21.5195 11.4648L23.4258 10.2422C24.5859 9.49609 25.9297 9.10156 27.3125 9.10156H34.6875V28.1641ZM15.5039 14.1016H8.24609C8.09375 14.1016 7.96875 14.2344 7.96875 14.3945V16.1523C7.96875 16.3125 8.09375 16.4453 8.24609 16.4453H15.5C15.6523 16.4453 15.7773 16.3125 15.7773 16.1523V14.3945C15.7812 14.2344 15.6562 14.1016 15.5039 14.1016ZM24.2188 14.3945V16.1523C24.2188 16.3125 24.3437 16.4453 24.4961 16.4453H31.75C31.9023 16.4453 32.0273 16.3125 32.0273 16.1523V14.3945C32.0273 14.2344 31.9023 14.1016 31.75 14.1016H24.4961C24.3437 14.1016 24.2188 14.2344 24.2188 14.3945ZM15.5039 19.5703H8.24609C8.09375 19.5703 7.96875 19.7031 7.96875 19.8633V21.6211C7.96875 21.7812 8.09375 21.9141 8.24609 21.9141H15.5C15.6523 21.9141 15.7773 21.7812 15.7773 21.6211V19.8633C15.7812 19.7031 15.6562 19.5703 15.5039 19.5703ZM31.7539 19.5703H24.4961C24.3437 19.5703 24.2188 19.7031 24.2188 19.8633V21.6211C24.2188 21.7812 24.3437 21.9141 24.4961 21.9141H31.75C31.9023 21.9141 32.0273 21.7812 32.0273 21.6211V19.8633C32.0313 19.7031 31.9063 19.5703 31.7539 19.5703Z" fill="white"/>
</svg>
