<svg width="74" height="17" viewBox="0 0 74 17" fill="none" xmlns="http://www.w3.org/2000/svg">
<g clip-path="url(#clip0_1391_7106)">
<path d="M23.1091 2.62767C22.9735 2.11975 22.7091 1.6567 22.3421 1.28464C21.9752 0.91258 21.5185 0.64449 21.0176 0.507069C19.1836 0 11.8033 0 11.8033 0C11.8033 0 4.42264 0.0153879 2.58897 0.522457C2.08807 0.6599 1.63142 0.928 1.26449 1.30006C0.897558 1.67212 0.633153 2.13516 0.497605 2.64306C-0.0571057 5.94707 -0.272313 10.9813 0.512781 14.1529C0.648329 14.6608 0.912733 15.1239 1.27966 15.4959C1.64659 15.868 2.10325 16.1361 2.60415 16.2735C4.43796 16.7806 11.8184 16.7806 11.8184 16.7806C11.8184 16.7806 19.1989 16.7806 21.0328 16.2735C21.5337 16.1361 21.9903 15.868 22.3572 15.4959C22.7242 15.1239 22.9886 14.6608 23.1241 14.1529C23.709 10.8444 23.8894 5.81327 23.1089 2.62782" fill="#FF0000"/>
<path d="M9.45508 11.9862L15.5777 8.39037L9.45508 4.79443V11.9862Z" fill="white"/>
<path d="M70.9995 4.87122C71.8027 4.87122 72.4089 5.02481 72.8332 5.31674C73.2575 5.60882 73.5608 6.06972 73.7426 6.69989C73.9244 7.32992 74.0001 8.19033 74.0001 9.29679V11.0948H70.1053V11.6479L70.166 13.1693C70.2114 13.5074 70.2873 13.7533 70.4084 13.9069C70.5298 14.0606 70.7267 14.1374 70.9844 14.1374C71.333 14.1374 71.5755 13.9992 71.6966 13.7227C71.833 13.446 71.8936 12.9849 71.9088 12.3549L73.9244 12.4778C73.9396 12.57 73.9396 12.693 73.9396 12.8466C73.9396 13.8147 73.6819 14.537 73.1515 15.0133C72.621 15.4896 71.8936 15.7355 70.9388 15.7355C69.7871 15.7355 68.9839 15.3668 68.5292 14.6446C68.0747 13.9223 67.8321 12.785 67.8321 11.2638V9.40436C67.8836 6.79207 68.3367 4.87884 70.9995 4.87122ZM42.9778 5.07097V12.7698C42.9778 13.2308 43.0232 13.5689 43.1293 13.7687C43.3445 14.1959 43.9022 14.0867 44.2053 13.8762C44.3803 13.7563 44.5213 13.5921 44.6145 13.3999V5.07083H46.9332V15.5664H45.1146L44.9176 14.2756H44.8722C44.3721 15.2437 43.6294 15.7354 42.6444 15.7354C41.1282 15.7316 40.7572 14.6239 40.6689 13.499L40.6631 13.4197C40.6522 13.2493 40.6458 13.0787 40.6439 12.908V5.07097H42.9778ZM54.9352 5.07097V12.7698C54.9352 13.2308 54.9806 13.5689 55.0866 13.7687C55.302 14.1959 55.8596 14.0867 56.1627 13.8762C56.3376 13.7563 56.4787 13.5921 56.5718 13.3999V5.07083H58.8906V15.5664H57.0719L56.8749 14.2756H56.8295C56.3295 15.2437 55.5867 15.7354 54.6017 15.7354C53.0856 15.7316 52.7146 14.6239 52.6263 13.499L52.6205 13.4197C52.6096 13.2493 52.6032 13.0787 52.6013 12.908V5.07097H54.9352ZM36.2489 4.87122C37.0066 4.87122 37.628 5.02481 38.0827 5.34752C38.5372 5.67022 38.8858 6.16205 39.098 6.83809C39.3102 7.51428 39.4163 8.42085 39.4163 9.5427V11.0639C39.4163 12.1858 39.3102 13.0771 39.098 13.7531C38.8858 14.4295 38.5524 14.9212 38.0827 15.2439C37.613 15.5512 36.9763 15.7202 36.1883 15.7202C35.3698 15.7355 34.7333 15.5666 34.2636 15.2592C33.7939 14.9365 33.4603 14.4447 33.2634 13.7687C33.0663 13.0925 32.9754 12.2012 32.9754 11.0794V9.55795C32.9754 8.43609 33.0815 7.51414 33.3088 6.83795C33.5362 6.14651 33.8846 5.65469 34.3697 5.34752C34.8546 5.04005 35.4759 4.87108 36.2489 4.87108M62.5278 0.660645V6.19268H62.543C62.7552 5.79318 63.0279 5.47047 63.4069 5.22456C63.7607 4.98329 64.1776 4.85488 64.604 4.85583C65.1648 4.85583 65.5891 5.00942 65.9074 5.30135C66.2257 5.60882 66.453 6.08511 66.5893 6.74591C66.7216 7.38605 66.7967 8.27137 66.8013 9.3878L66.8015 9.49669V11.1562C66.8015 12.7082 66.6045 13.8608 66.2407 14.5984C65.862 15.336 65.2861 15.7049 64.4979 15.7049C64.0586 15.7049 63.6644 15.5973 63.3008 15.3976C62.9791 15.2075 62.7125 14.935 62.5275 14.6074L62.4975 14.5523H62.4521L62.2096 15.5512H60.2849V0.660791L62.5278 0.660645ZM53.2528 1.19849V3.10381H50.9493V15.5664H48.6761V3.10395H46.3574V1.19864L53.2528 1.19849ZM28.2621 1.19849L28.2635 1.20435C28.2856 1.30415 28.592 2.6854 28.9291 4.29469L28.9557 4.42219L28.9959 4.6149L29.0227 4.74431L29.0362 4.80923L29.0631 4.93937L29.0765 5.00458L29.1032 5.13516L29.1423 5.32612C29.3699 6.4405 29.5871 7.5581 29.7171 8.35945H29.7778C29.9022 7.64061 30.083 6.7207 30.2758 5.78145L30.3264 5.53613C30.3519 5.41332 30.3773 5.29051 30.403 5.16799L30.4426 4.97791C30.7044 3.73322 30.9741 2.49024 31.2516 1.24905L31.2559 1.22927L31.2628 1.19849H33.5815L30.899 10.8951V15.5512H28.6107V10.9103H28.5955L25.9434 1.19834L28.2621 1.19849ZM36.2033 6.5C35.8851 6.5 35.6729 6.66912 35.5366 7.0226C35.4002 7.37594 35.3396 7.91378 35.3396 8.66691V11.94C35.3396 12.7084 35.4002 13.2768 35.5214 13.6151C35.6427 13.953 35.8701 14.1222 36.2033 14.1222C36.5216 14.1222 36.7489 13.953 36.8854 13.6151C37.0218 13.2768 37.0824 12.7084 37.0824 11.94V8.66677C37.0824 7.91378 37.0217 7.36055 36.8854 7.02245C36.7489 6.66912 36.5216 6.5 36.2033 6.5ZM62.937 6.80746C62.7523 6.98039 62.6209 7.19363 62.5427 7.4602L62.5278 7.51428V13.4766C62.7157 13.7993 62.9825 14.0144 63.4523 14.0298C63.6948 14.0298 63.8916 13.9376 64.0434 13.7533C64.1949 13.5689 64.3009 13.2615 64.3615 12.8312C64.4197 12.4182 64.4501 11.8493 64.4524 11.1247V9.66566C64.4524 8.83589 64.4221 8.20586 64.3767 7.7602C64.316 7.31453 64.2404 6.99183 64.104 6.80746C63.8402 6.4232 63.2704 6.42789 62.937 6.80746ZM70.9542 6.45398C70.6965 6.46937 70.5145 6.54616 70.4084 6.68451C70.2873 6.83809 70.2114 7.06862 70.166 7.40671C70.1214 7.73792 70.106 8.89568 70.1053 8.94199V9.69644H71.8027V9.03109V9.04384C71.8017 9.27642 71.7969 8.90887 71.7865 8.45764L71.7851 8.39696C71.7755 8.00039 71.7616 7.55825 71.7421 7.40671C71.6966 7.05323 71.6207 6.80732 71.4996 6.66912C71.3783 6.53077 71.1965 6.45398 70.954 6.45398" fill="white"/>
</g>
<defs>
<clipPath id="clip0_1391_7106">
<rect width="74" height="17" fill="white"/>
</clipPath>
</defs>
</svg>
